<?xml version="1.0" standalone="no"?>
<!DOCTYPE svg PUBLIC "-//W3C//DTD SVG 20010904//EN"
 "http://www.w3.org/TR/2001/REC-SVG-20010904/DTD/svg10.dtd">
<svg version="1.0" xmlns="http://www.w3.org/2000/svg"
 width="200.000000pt" height="200.000000pt" viewBox="0 0 200.000000 200.000000"
 preserveAspectRatio="xMidYMid meet">
<metadata>
Created by potrace 1.16, written by Peter Selinger 2001-2019
</metadata>
<g transform="translate(0.000000,200.000000) scale(0.100000,-0.100000)"
fill="#000000" stroke="none">
<path d="M512 1663 c-7 -3 -19 -18 -27 -33 -20 -39 -22 -628 -2 -635 9 -4 11
-75 9 -318 -2 -285 -1 -313 15 -324 12 -9 66 -13 188 -13 160 0 175 2 216 23
32 17 50 37 68 72 22 42 26 46 36 30 50 -87 130 -128 250 -127 91 0 134 14
189 62 66 58 80 98 84 241 6 205 -20 274 -126 336 -38 22 -61 28 -133 31 -77
4 -93 1 -141 -20 -114 -53 -147 -115 -148 -271 l0 -109 -26 31 c-14 17 -32 31
-40 31 -20 0 -17 14 7 36 52 46 63 133 27 204 -43 83 -88 99 -281 100 -100 0
-126 3 -120 13 4 6 10 118 13 247 l5 235 145 -220 c80 -121 156 -237 169 -257
23 -39 47 -48 69 -26 10 10 17 10 32 0 55 -34 80 -13 200 161 l73 106 89 -127
c49 -70 97 -133 106 -139 20 -17 53 -16 75 0 16 11 6 28 -99 174 l-116 163 23
32 c13 18 61 86 107 150 52 72 82 124 78 133 -7 18 -64 20 -86 2 -9 -7 -51
-63 -94 -124 -43 -62 -82 -110 -86 -108 -5 3 -40 52 -79 110 -39 57 -81 111
-93 120 -25 16 -65 20 -86 6 -15 -9 -13 -13 135 -217 l73 -103 -102 -144 c-57
-80 -104 -144 -106 -142 -2 1 -3 125 -3 274 1 287 -3 310 -46 330 -54 25 -52
31 -55 -239 l-3 -250 -91 137 c-50 76 -124 189 -164 251 -73 112 -86 122 -128
105z m850 -757 c67 -32 78 -63 78 -225 0 -161 -9 -195 -61 -232 -29 -21 -45
-24 -116 -24 -88 0 -115 11 -157 69 -18 24 -21 45 -25 158 -3 143 6 192 45
229 53 49 160 61 236 25z m-515 -1 c12 -8 27 -31 33 -50 9 -29 8 -41 -8 -78
-26 -59 -53 -68 -182 -65 l-105 3 -3 89 c-2 49 -1 95 2 103 8 20 234 18 263
-2z m9 -281 c34 -9 58 -63 51 -115 -10 -72 -26 -79 -188 -79 l-139 0 0 100 0
100 128 0 c70 0 137 -3 148 -6z"/>
</g>
</svg>
